<?xml version="1.0" encoding="utf-8"?>
<!-- Generator: Adobe Illustrator 14.0.0, SVG Export Plug-In . SVG Version: 6.00 Build 43363)  -->
<!DOCTYPE svg PUBLIC "-//W3C//DTD SVG 1.1//EN" "http://www.w3.org/Graphics/SVG/1.1/DTD/svg11.dtd">
<svg version="1.1" id="Layer_1" xmlns="http://www.w3.org/2000/svg" xmlns:xlink="http://www.w3.org/1999/xlink" x="0px" y="0px"
	 width="124px" height="124px" viewBox="0 0 124 124" enable-background="new 0 0 124 124" xml:space="preserve">
<path fill="#8B9299" d="M65.184,29.762c1.002-0.011,1.827,1.044,1.827,2.305l-0.02,57.452c0.02,1.292-0.812,2.33-1.823,2.344
	l-8.779-0.041c-0.992,0.027-1.814-1.018-1.814-2.274l-0.012-57.495c0-1.278,0.845-2.291,1.843-2.301L65.184,29.762z"/>
<path fill="#8B9299" d="M29.956,56.188c-0.01-1.066,1.039-1.92,2.285-1.92l57.063,0.014c1.278-0.014,2.288,0.864,2.33,1.913
	l-0.049,9.231c0.035,1.074-1.017,1.906-2.267,1.906l-57.078,0.015c-1.278,0-2.285-0.882-2.295-1.934L29.956,56.188z"/>
<path fill="#8B9299" d="M60.795,0.945C27.255,0.945,0.06,28.134,0.06,61.67c0,33.54,27.196,60.726,60.735,60.726
	c33.522,0,60.722-27.186,60.722-60.726C121.517,28.134,94.317,0.945,60.795,0.945z M60.781,106.685
	c-24.852,0-45.015-20.159-45.015-45.015c0-24.869,20.163-45.018,45.015-45.018c24.865,0,45.017,20.148,45.017,45.018
	C105.798,86.525,85.646,106.685,60.781,106.685z"/>
</svg>
