<?xml version="1.0" encoding="utf-8"?>
<!-- Generator: Adobe Illustrator 14.0.0, SVG Export Plug-In . SVG Version: 6.00 Build 43363)  -->
<!DOCTYPE svg PUBLIC "-//W3C//DTD SVG 1.1//EN" "http://www.w3.org/Graphics/SVG/1.1/DTD/svg11.dtd">
<svg version="1.1" id="Layer_1" xmlns="http://www.w3.org/2000/svg" xmlns:xlink="http://www.w3.org/1999/xlink" x="0px" y="0px"
	 width="124px" height="124px" viewBox="0 0 124 124" enable-background="new 0 0 124 124" xml:space="preserve">
<path fill="#66BD5B" d="M70.537,3.375c1.957-0.019,3.552,2.031,3.552,4.482l-0.038,111.596c0.038,2.507-1.584,4.527-3.56,4.547
	l-17.043-0.065c-1.92,0.046-3.522-1.994-3.522-4.436L49.897,7.82c0-2.47,1.641-4.445,3.597-4.464L70.537,3.375z"/>
<path fill="#66BD5B" d="M2.104,54.7c-0.019-2.06,2.013-3.718,4.436-3.718l110.84,0.027c2.489-0.027,4.455,1.678,4.529,3.709
	l-0.083,17.929c0.055,2.087-1.977,3.708-4.418,3.708L6.54,76.374c-2.479,0-4.436-1.705-4.454-3.746L2.104,54.7z"/>
</svg>
