<?xml version="1.0" encoding="utf-8"?>
<!-- Generator: Adobe Illustrator 14.0.0, SVG Export Plug-In . SVG Version: 6.00 Build 43363)  -->
<!DOCTYPE svg PUBLIC "-//W3C//DTD SVG 1.1//EN" "http://www.w3.org/Graphics/SVG/1.1/DTD/svg11.dtd">
<svg version="1.1" id="Layer_1" xmlns="http://www.w3.org/2000/svg" xmlns:xlink="http://www.w3.org/1999/xlink" x="0px" y="0px"
	 width="124px" height="124px" viewBox="0 0 124 124" enable-background="new 0 0 124 124" xml:space="preserve">
<path fill="#686868" d="M117.261,19.361c1.859,1.732,1.765,4.859-0.168,6.888l-87.662,92.304c-1.922,2.102-5.028,2.307-6.918,0.559
	L6.466,103.789c-1.838-1.689-1.732-4.814,0.159-6.832L94.266,4.551c1.966-2.055,5.07-2.213,6.909-0.476L117.261,19.361z"/>
<path fill="#686868" d="M18.688,7.832c1.965-2.097,5.282-2.176,7.267-0.28L117.632,94.6c2.081,1.912,2.07,5.199,0.157,7.314
	l-17.3,18.111c-1.935,2.15-5.188,2.158-7.206,0.27L1.523,33.272c-2.028-1.938-2.007-5.229-0.084-7.283L18.688,7.832z"/>
</svg>
