<?xml version="1.0" encoding="utf-8"?>
<!-- Generator: Adobe Illustrator 14.0.0, SVG Export Plug-In . SVG Version: 6.00 Build 43363)  -->
<!DOCTYPE svg PUBLIC "-//W3C//DTD SVG 1.1//EN" "http://www.w3.org/Graphics/SVG/1.1/DTD/svg11.dtd">
<svg version="1.1" id="Layer_1" xmlns="http://www.w3.org/2000/svg" xmlns:xlink="http://www.w3.org/1999/xlink" x="0px" y="0px"
	 width="124px" height="124px" viewBox="0 0 124 124" enable-background="new 0 0 124 124" xml:space="preserve">
<path fill="#FBB03C" d="M109.091,99.528H16.375c-1.627,0-2.936,1.104-2.936,2.475v19.538c0,1.354,1.309,2.459,2.936,2.459h92.716
	c1.601,0,2.925-1.104,2.925-2.459v-19.538C112.016,100.632,110.691,99.528,109.091,99.528z M25.859,116.668
	c-2.317,0-4.202-1.893-4.202-4.227c0-2.325,1.885-4.225,4.202-4.225c2.334,0,4.23,1.899,4.23,4.225
	C30.09,114.775,28.193,116.668,25.859,116.668z M39.953,116.817c-2.334,0-4.214-1.884-4.214-4.218s1.88-4.209,4.214-4.209
	c2.317,0,4.217,1.875,4.217,4.209S42.27,116.817,39.953,116.817z"/>
<path fill="#FBB03C" d="M72.052,89.074c0,1.624-2.373,2.964-5.33,2.964h-6.307c-2.952,0-5.33-1.34-5.33-2.964V3.687
	c0-1.632,2.378-2.956,5.33-2.956h6.307c2.957,0,5.33,1.324,5.33,2.956V89.074z"/>
<path fill="#FBB03C" d="M71.239,80.891c0.931,0.56,0.395,3.153-1.198,5.771l-3.422,5.551c-1.567,2.634-3.626,4.305-4.532,3.753
	L13.813,66.589c-0.931-0.567-0.39-3.145,1.19-5.77l3.402-5.583c1.612-2.629,3.63-4.265,4.564-3.721L71.239,80.891z"/>
<path fill="#FBB03C" d="M104.054,52.848c0.929-0.548,2.916,1.111,4.422,3.713l3.146,5.558c1.504,2.611,1.955,5.148,1.024,5.701
	L63.529,96.044c-0.962,0.536-2.948-1.136-4.422-3.769l-3.178-5.535c-1.522-2.594-1.958-5.124-1.009-5.66L104.054,52.848z"/>
</svg>
