<?xml version="1.0" encoding="utf-8"?>
<!-- Generator: Adobe Illustrator 14.0.0, SVG Export Plug-In . SVG Version: 6.00 Build 43363)  -->
<!DOCTYPE svg PUBLIC "-//W3C//DTD SVG 1.1//EN" "http://www.w3.org/Graphics/SVG/1.1/DTD/svg11.dtd">
<svg version="1.1" id="Layer_1" xmlns="http://www.w3.org/2000/svg" xmlns:xlink="http://www.w3.org/1999/xlink" x="0px" y="0px"
	 width="124px" height="124px" viewBox="0 0 124 124" enable-background="new 0 0 124 124" xml:space="preserve">
<g>
	<path fill="#B3B3B3" d="M69.119,67.529c1.14,0.652,0.501,3.75-1.351,6.877l-4.009,6.668c-1.837,3.148-4.267,5.178-5.346,4.516
		L0.561,51.206c-1.123-0.661-0.501-3.728,1.336-6.863l3.994-6.704c1.883-3.159,4.267-5.114,5.375-4.48L69.119,67.529z"/>
	<path fill="#B3B3B3" d="M107.855,33.724c1.094-0.66,3.478,1.295,5.315,4.37l3.811,6.582c1.821,3.098,2.399,6.119,1.291,6.788
		L60.131,85.666c-1.155,0.646-3.523-1.312-5.315-4.426l-3.856-6.566c-1.837-3.061-2.384-6.066-1.275-6.727L107.855,33.724z"/>
</g>
</svg>
