<?xml version="1.0" encoding="utf-8"?>
<!-- Generator: Adobe Illustrator 14.0.0, SVG Export Plug-In . SVG Version: 6.00 Build 43363)  -->
<!DOCTYPE svg PUBLIC "-//W3C//DTD SVG 1.1//EN" "http://www.w3.org/Graphics/SVG/1.1/DTD/svg11.dtd">
<svg version="1.1" id="Layer_1" xmlns="http://www.w3.org/2000/svg" xmlns:xlink="http://www.w3.org/1999/xlink" x="0px" y="0px"
	 width="124px" height="124px" viewBox="0 0 124 124" enable-background="new 0 0 124 124" xml:space="preserve">
<path fill="#4D82BC" d="M60.279,68.429c1.608,1.191,2.169,3.094,1.351,4.201l-38.392,50.523c-0.834,1.152-2.836,1.061-4.429-0.122
	L4.981,112.493c-1.592-1.183-2.183-3.078-1.304-4.185l38.332-50.568c0.88-1.122,2.852-1.017,4.458,0.181L60.279,68.429z"/>
<path fill="#4D82BC" d="M107.467,18.181L93.031,36.315c-1.349,1.675-3.775,1.948-5.443,0.599L71.864,24.382
	c-1.652-1.334-1.94-3.775-0.622-5.414l14.36-18.013C83.101,0.349,80.537,0,77.823,0C59.416,0,44.479,14.936,44.479,33.344
	c0,18.407,14.937,33.327,33.344,33.327s33.343-14.92,33.343-33.327C111.166,27.869,109.832,22.707,107.467,18.181z"/>
</svg>
