<?xml version="1.0" encoding="utf-8"?>
<!-- Generator: Adobe Illustrator 14.0.0, SVG Export Plug-In . SVG Version: 6.00 Build 43363)  -->
<!DOCTYPE svg PUBLIC "-//W3C//DTD SVG 1.1//EN" "http://www.w3.org/Graphics/SVG/1.1/DTD/svg11.dtd">
<svg version="1.1" id="Layer_1" xmlns="http://www.w3.org/2000/svg" xmlns:xlink="http://www.w3.org/1999/xlink" x="0px" y="0px"
	 width="124px" height="124px" viewBox="0 0 124 124" enable-background="new 0 0 124 124" xml:space="preserve">
<g>
	<path fill="#4D82BC" d="M98.415,13.375v98.255h-77.81V32.756l20.693-19.381H98.415 M101.675,1.77H36.712L9,27.725v87.771
		c0,4.279,3.751,7.74,8.366,7.74h84.309c4.61,0,8.346-3.461,8.346-7.74V9.511C110.021,5.238,106.285,1.77,101.675,1.77L101.675,1.77
		z"/>
</g>
<g>
	<path fill="#267BC0" d="M87.887,43.579c0.985-0.011,1.78,1.021,1.78,2.247v56.176c0,1.271-0.815,2.282-1.788,2.289l-8.58-0.032
		c-0.985,0.025-1.785-0.992-1.785-2.232l-0.014-56.2c0-1.25,0.829-2.247,1.812-2.258L87.887,43.579z"/>
	<path fill="#267BC0" d="M53.445,69.411c-0.007-1.045,1.015-1.882,2.222-1.882l55.797,0.032c1.243-0.032,2.249,0.829,2.271,1.861
		l-0.028,9.027c0.015,1.032-1.015,1.86-2.229,1.86H55.667c-1.243,0-2.222-0.861-2.229-1.886L53.445,69.411z"/>
</g>
</svg>
