<?xml version="1.0" encoding="utf-8"?>
<!-- Generator: Adobe Illustrator 14.0.0, SVG Export Plug-In . SVG Version: 6.00 Build 43363)  -->
<!DOCTYPE svg PUBLIC "-//W3C//DTD SVG 1.1//EN" "http://www.w3.org/Graphics/SVG/1.1/DTD/svg11.dtd">
<svg version="1.1" id="Layer_1" xmlns="http://www.w3.org/2000/svg" xmlns:xlink="http://www.w3.org/1999/xlink" x="0px" y="0px"
	 width="124px" height="124px" viewBox="0 0 124 124" enable-background="new 0 0 124 124" xml:space="preserve">
<g>
	<path fill="#C55327" d="M94.716,11.82v100.072H15.459V31.557L36.527,11.82H94.716 M98.015,0H31.856L3.639,26.434v89.395
		c0,4.35,3.811,7.884,8.52,7.884h85.855c4.697,0,8.521-3.534,8.521-7.884V7.879C106.536,3.526,102.712,0,98.015,0L98.015,0z"/>
</g>
<g>
	<path fill="#C55327" d="M110.227,60.371c0.681-0.601,2.679,0.362,4.459,2.127l3.772,3.779c1.803,1.737,2.706,3.664,2.042,4.235
		L85.439,100.98c-0.68,0.58-2.671-0.368-4.465-2.129l-3.793-3.763c-1.797-1.782-2.666-3.649-2.006-4.243L110.227,60.371z"/>
	<path fill="#C55327" d="M75.103,44.035c-0.572-0.655,0.521-2.414,2.483-3.938l4.221-3.189c1.961-1.517,4.024-2.211,4.624-1.556
		l34.299,33.516c0.594,0.682-0.52,2.447-2.519,3.945l-4.189,3.2c-1.948,1.542-4.014,2.208-4.591,1.557L75.103,44.035z"/>
</g>
</svg>
