<?xml version="1.0" encoding="utf-8"?>
<!-- Generator: Adobe Illustrator 14.0.0, SVG Export Plug-In . SVG Version: 6.00 Build 43363)  -->
<!DOCTYPE svg PUBLIC "-//W3C//DTD SVG 1.1//EN" "http://www.w3.org/Graphics/SVG/1.1/DTD/svg11.dtd">
<svg version="1.1" id="Layer_1" xmlns="http://www.w3.org/2000/svg" xmlns:xlink="http://www.w3.org/1999/xlink" x="0px" y="0px"
	 width="124px" height="124px" viewBox="0 0 124 124" enable-background="new 0 0 124 124" xml:space="preserve">
<g>
	<path fill="#B3B3B3" d="M37.719,75.622c-1.245,1.106-4.928-0.682-8.242-3.948l-6.979-6.971c-3.331-3.234-5.013-6.792-3.768-7.847
		L83.585,0.475c1.261-1.063,4.945,0.694,8.257,3.936l7.03,6.971c3.313,3.293,4.93,6.758,3.701,7.855L37.719,75.622z"/>
	<path fill="#B3B3B3" d="M102.689,105.837c1.077,1.212-0.956,4.466-4.589,7.283l-7.789,5.9c-3.633,2.808-7.467,4.09-8.561,2.875
		L18.293,59.896c-1.093-1.266,0.959-4.52,4.659-7.299l7.754-5.925c3.616-2.851,7.417-4.086,8.494-2.876L102.689,105.837z"/>
</g>
</svg>
