<?xml version="1.0" encoding="utf-8"?>
<!-- Generator: Adobe Illustrator 14.0.0, SVG Export Plug-In . SVG Version: 6.00 Build 43363)  -->
<!DOCTYPE svg PUBLIC "-//W3C//DTD SVG 1.1//EN" "http://www.w3.org/Graphics/SVG/1.1/DTD/svg11.dtd">
<svg version="1.1" id="Layer_1" xmlns="http://www.w3.org/2000/svg" xmlns:xlink="http://www.w3.org/1999/xlink" x="0px" y="0px"
	 width="124px" height="124px" viewBox="0 0 124 124" enable-background="new 0 0 124 124" xml:space="preserve">
<g>
	<path fill="#E6E6E6" d="M88.277,48.542c1.244-1.106,4.945,0.681,8.24,3.948l6.99,6.971c3.33,3.234,5.004,6.791,3.758,7.846
		l-64.854,56.382c-1.253,1.063-4.944-0.694-8.258-3.936l-7.022-6.973c-3.313-3.292-4.919-6.756-3.708-7.854L88.277,48.542z"/>
	<path fill="#E6E6E6" d="M23.305,18.326c-1.077-1.211,0.958-4.466,4.592-7.283l7.787-5.899c3.641-2.81,7.467-4.092,8.561-2.876
		l63.458,61.999c1.104,1.265-0.957,4.52-4.658,7.299l-7.754,5.925c-3.6,2.851-7.418,4.087-8.494,2.876L23.305,18.326z"/>
</g>
</svg>
