<?xml version="1.0" encoding="utf-8"?>
<!-- Generator: Adobe Illustrator 14.0.0, SVG Export Plug-In . SVG Version: 6.00 Build 43363)  -->
<!DOCTYPE svg PUBLIC "-//W3C//DTD SVG 1.1//EN" "http://www.w3.org/Graphics/SVG/1.1/DTD/svg11.dtd">
<svg version="1.1" id="Layer_1" xmlns="http://www.w3.org/2000/svg" xmlns:xlink="http://www.w3.org/1999/xlink" x="0px" y="0px"
	 width="124px" height="124px" viewBox="0 0 124 124" enable-background="new 0 0 124 124" xml:space="preserve">
<path fill="#B3B3B3" d="M70.819-0.008c-21.398,0-38.768,17.362-38.768,38.764c0,21.403,17.369,38.771,38.768,38.771
	c21.425,0,38.765-17.367,38.765-38.771C109.584,17.354,92.244-0.008,70.819-0.008z M70.819,57.957c-10.711,0-19.4-8.661-19.4-19.405
	c0-10.704,8.689-19.39,19.4-19.39c10.743,0,19.413,8.686,19.413,19.39C90.232,49.296,81.562,57.957,70.819,57.957z"/>
<path fill="#B3B3B3" d="M51.448,78.858c1.529,1.173,2.256,2.846,1.559,3.723l-31.016,40.86c-0.697,0.908-2.498,0.68-4.041-0.469
	L4.515,112.744c-1.543-1.144-2.224-2.846-1.573-3.738l31.017-40.858c0.682-0.893,2.512-0.682,4.055,0.514L51.448,78.858z"/>
</svg>
