<?xml version="1.0" encoding="utf-8"?>
<!-- Generator: Adobe Illustrator 14.0.0, SVG Export Plug-In . SVG Version: 6.00 Build 43363)  -->
<!DOCTYPE svg PUBLIC "-//W3C//DTD SVG 1.1//EN" "http://www.w3.org/Graphics/SVG/1.1/DTD/svg11.dtd">
<svg version="1.1" id="Layer_1" xmlns="http://www.w3.org/2000/svg" xmlns:xlink="http://www.w3.org/1999/xlink" x="0px" y="0px"
	 width="124px" height="124px" viewBox="0 0 124 124" enable-background="new 0 0 124 124" xml:space="preserve">
<path fill="#686868" d="M43.168,63.345c0,11.932-9.671,21.609-21.583,21.609C9.657,84.954,0,75.276,0,63.345
	c0-11.91,9.657-21.583,21.585-21.583C33.497,41.762,43.168,51.435,43.168,63.345z"/>
<path fill="#686868" d="M86.812,38.022c0.51,1.206,0.376,2.452-0.296,2.748l-31.79,13.411c-0.709,0.329-1.697-0.443-2.201-1.664
	l-4.544-10.793c-0.541-1.199-0.369-2.45,0.306-2.762l31.771-13.407c0.692-0.312,1.687,0.444,2.198,1.71L86.812,38.022z"/>
<path fill="#686868" d="M82.209,97.763c-0.523,1.162-1.525,1.936-2.238,1.586L47.778,84.968c-0.738-0.322-0.859-1.561-0.312-2.783
	l4.805-10.672c0.504-1.225,1.542-1.922,2.253-1.627l32.193,14.408c0.714,0.311,0.833,1.561,0.277,2.809L82.209,97.763z"/>
<polygon fill="#686868" points="119.983,17.461 98.364,46.136 84.367,13.093 "/>
<polygon fill="#686868" points="84.367,111.034 100.453,77.144 121.745,108.005 "/>
</svg>
