<?xml version="1.0" encoding="utf-8"?>
<!-- Generator: Adobe Illustrator 14.0.0, SVG Export Plug-In . SVG Version: 6.00 Build 43363)  -->
<!DOCTYPE svg PUBLIC "-//W3C//DTD SVG 1.1//EN" "http://www.w3.org/Graphics/SVG/1.1/DTD/svg11.dtd">
<svg version="1.1" id="Layer_1" xmlns="http://www.w3.org/2000/svg" xmlns:xlink="http://www.w3.org/1999/xlink" x="0px" y="0px"
	 width="124px" height="124px" viewBox="0 0 124 124" enable-background="new 0 0 124 124" xml:space="preserve">
<path fill="#C55327" d="M102.629,35.208H22.169c-1.924,0-3.47,1.061-3.47,2.355v84.089c0,1.294,1.546,2.348,3.47,2.348h80.459
	c1.894,0,3.438-1.054,3.438-2.348V37.563C106.067,36.269,104.522,35.208,102.629,35.208z M53.097,108.486
	c0,1.592-1,2.917-2.242,2.917h-8.779c-1.242,0-2.242-1.325-2.242-2.917V53.66c0-1.605,1-2.916,2.242-2.916h8.779
	c1.242,0,2.242,1.311,2.242,2.916V108.486z M84.934,108.486c0,1.592-1,2.917-2.257,2.917H73.89c-1.228,0-2.242-1.325-2.242-2.917
	V53.66c0-1.605,1.015-2.916,2.242-2.916h8.787c1.257,0,2.257,1.311,2.257,2.916V108.486z"/>
<path fill="#C55327" d="M102.811,9.771H77.828v-6.56c0-1.757-1.408-3.196-3.196-3.196H52.089c-1.757,0-3.211,1.439-3.211,3.196v6.56
	H21.942c-1.803,0-3.242,1.023-3.242,2.258v10.847c0,1.266,1.439,2.258,3.242,2.258h80.869c1.788,0,3.212-0.992,3.212-2.258V12.029
	C106.022,10.795,104.599,9.771,102.811,9.771z"/>
</svg>
